<svg t="1651132280796" class="icon" viewBox="0 0 1024 1024" version="1.1" xmlns="http://www.w3.org/2000/svg" p-id="9689" width="200" height="200"><path d="M426.666667 138.666667v746.666666a53.393333 53.393333 0 0 1-53.333334 53.333334H266.666667a53.393333 53.393333 0 0 1-53.333334-53.333334V138.666667a53.393333 53.393333 0 0 1 53.333334-53.333334h106.666666a53.393333 53.393333 0 0 1 53.333334 53.333334z m330.666666-53.333334H650.666667a53.393333 53.393333 0 0 0-53.333334 53.333334v746.666666a53.393333 53.393333 0 0 0 53.333334 53.333334h106.666666a53.393333 53.393333 0 0 0 53.333334-53.333334V138.666667a53.393333 53.393333 0 0 0-53.333334-53.333334z" fill="#5C5C66" p-id="9690"></path></svg>