<svg t="1652931347516" class="icon" viewBox="0 0 1024 1024" version="1.1" xmlns="http://www.w3.org/2000/svg" p-id="2457" width="200" height="200"><path d="M947.2 588.8a51.2 51.2 0 0 1 51.2 51.2v256a51.2 51.2 0 0 1-51.2 51.2h-358.4a51.2 51.2 0 0 1-51.2-51.2v-256a51.2 51.2 0 0 1 51.2-51.2h358.4z m-128.1024-473.6a140.8 140.8 0 0 1 140.544 132.1984l0.256 8.6016v208.384a38.4 38.4 0 0 1-76.4416 5.2224l-0.3584-5.2224V256a64 64 0 0 0-57.4464-63.6928l-6.5536-0.3072H179.2a64 64 0 0 0-63.6928 57.4464L115.2 256v512c0 33.1264 25.1904 60.416 57.4464 63.6928l6.5536 0.3072h230.656a38.4 38.4 0 0 1 5.2224 76.4416l-5.2224 0.3584H179.2a140.8 140.8 0 0 1-140.544-132.1984L38.4 768V256a140.8 140.8 0 0 1 132.1984-140.544L179.2 115.2h639.8976zM277.6576 276.0192l4.3008 3.7376L422.4 420.1472V307.2a38.4 38.4 0 0 1 33.1776-38.0416L460.8 268.8a38.4 38.4 0 0 1 38.0416 33.1776L499.2 307.2v179.2a64 64 0 0 1-57.4464 63.6928l-6.5536 0.3072H256a38.4 38.4 0 0 1-5.2224-76.4416L256 473.6h111.2064L227.6352 334.08a38.4 38.4 0 0 1 50.0224-58.0608z" p-id="2458" fill="#ffffff"></path></svg>