<svg t="1652345665430" class="icon" viewBox="0 0 1024 1024" version="1.1" xmlns="http://www.w3.org/2000/svg" p-id="4941" width="200" height="200"><path d="M721.03178 488.204038 302.380842 488.204038c-25.584702 0-46.51643 21.208021-46.51643 47.12632l0 377.012609c0 25.919323 20.931728 47.12632 46.51643 47.12632l418.650939 0c25.583678 0 46.51643-21.206998 46.51643-47.12632L767.54821 535.330358C767.54821 509.412059 746.615459 488.204038 721.03178 488.204038zM721.03178 912.342967 302.380842 912.342967 302.380842 535.330358l418.650939 0L721.03178 912.342967z" p-id="4942" fill="#ffffff"></path><path d="M887.059118 228.963739l-84.331687 0 0-70.647013c0-51.837622-50.718125-94.296643-99.971899-94.296643L299.803133 64.020082c-49.248657 0-79.117942 42.457997-79.117942 94.296643l0 70.647013-94.758154 0c-37.087687 0-61.945841 31.66314-61.945841 70.704318l0 353.448938c0 25.919323 14.935154 47.111994 39.558971 47.111994l94.758154 0L198.298322 488.174362c0-38.879496 25.010627-70.704318 61.945841-70.704318l492.496807 0c36.938284 0 72.371284 31.823799 72.371284 70.704318l0 212.054627 79.117942 0c27.493168 0 55.199183-23.660886 55.199183-52.598962L959.429379 299.668057C959.430402 260.788561 923.997402 228.963739 887.059118 228.963739zM831.375911 346.780051l-78.351486 0c-12.310374 0-22.385846-10.603499-22.385846-23.563672 0-12.95915 10.075473-23.563672 22.385846-23.563672l78.351486 0c12.313443 0 22.385846 10.603499 22.385846 23.563672C853.761758 336.176552 843.689355 346.780051 831.375911 346.780051zM735.568868 228.963739 287.843754 228.963739l0-47.038316c0-25.919323 9.723455-47.214325 34.345226-47.214325l358.179682 0c24.626887 0 55.199183 21.295002 55.199183 47.214325L735.567845 228.963739z" p-id="4943" fill="#ffffff"></path><path d="M640.746246 749.644445 382.665353 749.644445c-14.264888 0-25.807782-11.542894-25.807782-25.807782 0-14.264888 11.542894-25.807782 25.807782-25.807782l258.080893 0c14.264888 0 25.807782 11.542894 25.807782 25.807782C666.554028 738.101551 655.011134 749.644445 640.746246 749.644445z" p-id="4944" fill="#ffffff"></path><path d="M640.746246 639.666658 382.665353 639.666658c-14.264888 0-25.807782-11.542894-25.807782-25.807782s11.542894-25.807782 25.807782-25.807782l258.080893 0c14.264888 0 25.807782 11.542894 25.807782 25.807782S655.011134 639.666658 640.746246 639.666658z" p-id="4945" fill="#ffffff"></path><path d="M640.746246 857.131505 382.665353 857.131505c-14.264888 0-25.807782-11.542894-25.807782-25.807782 0-14.264888 11.542894-25.807782 25.807782-25.807782l258.080893 0c14.264888 0 25.807782 11.542894 25.807782 25.807782C666.554028 845.587588 655.011134 857.131505 640.746246 857.131505z" p-id="4946" fill="#ffffff"></path></svg>