<svg t="1651132857187" class="icon" viewBox="0 0 1024 1024" version="1.1" xmlns="http://www.w3.org/2000/svg" p-id="18283" width="200" height="200"><path d="M604.842667 384l-33.024 27.861333a62.72 62.72 0 0 1-40.874667 14.805334 62.72 62.72 0 0 1-40.832-14.805334 57.002667 57.002667 0 0 1-18.517333-27.818666L384 384a85.333333 85.333333 0 0 0-85.333333 85.333333v256a85.333333 85.333333 0 0 0 85.333333 85.333334h426.666667a85.333333 85.333333 0 0 0 85.333333-85.333334v-256a85.333333 85.333333 0 0 0-85.333333-85.333333h-205.824z m-73.898667-256a20.096 20.096 0 0 0-13.312 4.693333 14.293333 14.293333 0 0 0-5.632 11.306667V213.333333H384a256 256 0 0 0-255.829333 246.4L128 469.333333v170.666667a42.666667 42.666667 0 0 0 85.034667 4.992L213.333333 640v-170.666667a170.666667 170.666667 0 0 1 162.133334-170.453333L384 298.666667h128v69.333333a13.909333 13.909333 0 0 0 5.632 11.264c3.712 3.157333 8.192 4.736 13.312 4.736s9.6-1.578667 13.354667-4.693333l132.778666-112.042667A14.336 14.336 0 0 0 682.666667 256a14.336 14.336 0 0 0-5.589334-11.264l-132.778666-112A19.968 19.968 0 0 0 530.944 128z" p-id="18284" fill="#ffffff"></path></svg>